<svg xmlns="http://www.w3.org/2000/svg" width="114" height="114"><linearGradient id="a" gradientUnits="userSpaceOnUse" x1="53.659" y1="16.402" x2="57.756" y2="94.58"><stop offset=".147" stop-color="#A7A7A7"/><stop offset=".203" stop-color="#A2A2A2"/><stop offset=".504" stop-color="#898989"/><stop offset=".778" stop-color="#7A7A7A"/><stop offset="1" stop-color="#747474"/></linearGradient><path d="M85.859 51.652s-3.105-8.291-14.322-19.294c-11.707-11.484-21.051-15.789-21.051-15.789s-16.267 17.987-22.806 42.103c-7.023 25.9 12.28 36.841 12.28 36.841v-19.298h17.543s-3.837-15.214-5.392-27.451c-1.403-11.05-1.625-21.669-1.625-21.669s1.801 7.461 7.017 23.975c3.792 12.006 7.017 18.128 7.017 18.128v-17.543l21.339-.003z" fill="url(#a)"/><rect x="45" y="81" width="17.984" height="18" fill="#CECECE"/><rect x="68.916" y="81" width="17.984" height="18" fill="#CECECE"/><rect x="68.916" y="57" width="17.984" height="18" fill="#CECECE"/></svg>